<?xml version="1.0" encoding="utf-8"?>
<!-- Generator: Adobe Illustrator 23.1.1, SVG Export Plug-In . SVG Version: 6.00 Build 0)  -->
<svg version="1.1" xmlns="http://www.w3.org/2000/svg" xmlns:xlink="http://www.w3.org/1999/xlink" x="0px" y="0px"
	 viewBox="0 0 1152.9 791.6" style="enable-background:new 0 0 1152.9 791.6;" xml:space="preserve">
<style type="text/css">
	.st0{fill:#FFFFFF;}
	.st1{fill:none;}
	.st2{fill:#222640;}
	.st3{fill:#00173F;}
	.st4{fill:#224189;}
	.st5{fill:#DBC9E0;}
	.st6{fill:#B4CCDE;}
	.st7{fill:#B7D4D3;}
	.st8{fill:#90D3D0;}
	.st9{fill:none;stroke:#224189;stroke-width:0.6153;stroke-miterlimit:10;}
	.st10{fill:none;stroke:#224189;stroke-width:0.9864;stroke-miterlimit:10;}
	.st11{fill:none;stroke:#224189;stroke-width:2.5031;stroke-miterlimit:10;}
	.st12{fill:none;stroke:#224189;stroke-width:0.9756;stroke-miterlimit:10;}
	.st13{clip-path:url(#SVGID_4_);fill:#FFFFFF;}
	.st14{clip-path:url(#SVGID_6_);fill:#FFFFFF;}
	.st15{fill:none;stroke:#4D4D4D;stroke-width:0.8467;stroke-miterlimit:10;}
	.st16{fill:#83748F;}
	.st17{fill:#85CAC6;}
	.st18{fill:#990000;}
	.st19{fill:none;stroke:#224189;stroke-width:0.5;stroke-miterlimit:10;}
	.st20{fill:none;stroke:#214288;stroke-width:0.5;stroke-miterlimit:10;}
	.st21{fill:none;stroke:#224189;stroke-width:0.2;stroke-miterlimit:10;}
	.st22{fill:#020202;}
	.st23{fill:none;stroke:#000000;stroke-miterlimit:10;}
	.st24{fill:none;stroke:#000000;stroke-width:0.2864;stroke-miterlimit:10;}
	.st25{fill:none;stroke:#000000;stroke-width:0.3635;stroke-miterlimit:10;}
	.st26{display:none;}
	.st27{display:inline;fill:#F9F9F9;}
</style>
<g id="Layer_1">
	<g>
		<g>
			<path d="M423.5,331.9c-34.5,15.8-69.1,31.3-103.4,47.5c-3.1,1.5-6.3,7.1-6.2,10.6c1.2,42.1-18.2,76.9-40.8,109.6
				c-29.3,42.5-62.4,82.5-110.3,105.1c-19.3,9.1-41.6,14.4-62.9,15.9c-33.6,2.4-51.5-23.1-41.3-55.4c2.8-8.9,7.7-18.4,14.3-24.8
				c23.4-22.5,46.3-46,72.4-65.1c37.7-27.6,78.2-51.4,117-77.5c5.1-3.4,9.9-10.6,10.6-16.6c5.9-53.5-6.9-98.7-57.7-127.2
				c-17.1-9.6-34.1-20.7-48-34.2c-20.9-20.3-25.5-47.6-19.2-75.1C158.6,98.2,188.3,65,231,45.7c15.2-6.9,34.8-7.4,52-5.9
				c23.6,2.1,35.1,15.6,36.6,39.7c2.3,35.4-10.5,65.8-36.2,90.1c-4.5,4.2-12.2,5-19.4,7.7c11.8-19.2,22.7-35.1,31.4-52.2
				c6.8-13.3,11.1-29.4-0.5-41.6c-11.3-12-27.1-6.9-40.2-1.6c-36.6,14.9-57.4,43.2-61.7,82.2c-2.4,21,9.8,36.8,25.1,49.7
				c12.5,10.4,25.6,20.2,38.5,30.1c36.1,27.8,54.4,64.8,57,110.1c0.2,3.4,0.8,6.7,1.1,9.7c36.4-12.9,72-25.6,108.2-38.4
				c0.5-27.6-15.8-44.6-45.7-48.6c-9.8-1.3-25.8-5.2-27.1-10.8c-3.4-13.9,12.7-16.5,22.1-20.1c25-9.7,50.7-18.1,76.5-25.6
				c8.9-2.6,13.7-6.1,16.1-15.4c2.4-9.2,6.4-18.3,11.4-26.4c2.4-3.8,9.6-7.8,13.1-6.7c3.6,1.1,6.8,8.1,7.4,12.9
				c0.8,6.8-1,13.9-1.9,23.1c19.7-3.9,38.4-7.5,57-11.2c39.2-7.8,78.5-12.3,118.1-4c8.6,1.8,17.1,6.1,24.3,11c2.8,1.9,2.1,9,3,13.7
				c-4.5,0.5-9.1,1.5-13.6,1.4c-16-0.6-32.2-3.8-47.8-1.9c-46.4,5.8-92.6,13.4-138.7,21c-4.8,0.8-11.5,5.3-12.9,9.5
				c-17.4,53.6-34.2,107.4-50.8,161.3c-15.1,49.2-16,100.2-18.8,151c-0.1,2-0.2,4.1-0.5,6.1c-1.5,10.2-4.7,19.5-17,19.9
				c-12,0.4-18.2-8.7-18.5-18.6c-0.7-22.2-3-45.4,2.2-66.5c11.6-46.8,27.4-92.5,41.3-138.7c2.4-8,4.3-16.1,6.5-24.2
				C427,335.5,425.2,333.7,423.5,331.9z M269.2,405.5c-19.3,13.5-36,23.2-50.3,35.6c-38.4,33.3-76.3,67.1-113.1,102
				c-10.5,10-23.6,25.7-12.3,39.9c10.8,13.5,27.6,3.1,40.6-3.2c38.7-18.9,69.8-47.5,96-81C250.3,473,260.7,442.1,269.2,405.5z
				 M438.8,305.5c4.8-19.1,9.5-38.2,15-60.4c-20.9,6.1-37.9,11.1-54.9,16.1c-0.2,1.5-0.5,2.9-0.7,4.4
				C419.5,271.4,430.3,286.6,438.8,305.5z"/>
			<path d="M1063.1,394.9c-14.6,9.3-38,28.2-50.2,34c-16.8,8.1-27.9,0.3-28.1-18.3c0-7.5,1.3-15,2.3-25.5c-10.6,7.1-19.2,13-28,18.7
				c-15.3,10-30.1,21.1-46.3,29.4c-18.7,9.6-29.4,2.9-31.5-17.5c-1.1-11-1.4-22.2-2.4-38.7c-13.4,14.6-24.7,26.7-35.7,39.1
				c-5.4,6.1-9.5,13.4-15.4,18.8c-10.2,9.2-19.1,6.1-19.1-7.5c0-14.8,3.8-29.6,6.2-45.5c-22.2,8.3-45.5,14-70,5.4
				c-1.9-0.7-6.1,3.7-8.6,6.4c-8.1,9-14.6,20.1-24.3,26.8c-6.9,4.8-20.7,8.2-26.2,4.5c-6.6-4.4-8.4-16.9-10.8-26.2
				c-1.1-4.5,1.1-9.8,1.7-14c-12.8,1.9-24.9,5.1-37.1,5.1c-16.9,0-26.2-10.1-26.2-27.2c0-13.6,2.5-27.3,2.8-40.9
				c0.1-4.5-1.8-11.5-4.9-13c-3.1-1.6-10.6,0.8-13.3,3.9c-16,18.3-34.3,35.6-45.8,56.5c-18.9,34.1-32.8,70.8-49.7,106
				c-2.3,4.8-9.3,9.9-14.3,10.1c-3.7,0.2-10.9-7.3-11.1-11.6c-0.6-15.1-1.9-31.3,2.6-45.2c14.9-45.3,32.2-89.8,49-134.4
				c2.3-6,6.4-11.8,11-16.4c3.8-3.8,12.1-9.1,13.8-7.8c4.9,3.8,10.6,10.8,10.3,16.2c-0.6,11.4-4.8,22.7-7.5,34
				c-0.6,2.4-1.2,4.7,0.6,9c4.8-5.2,8.8-11.4,14.4-15.4c14.2-10.2,28.2-21.8,44.1-28.3c16.5-6.7,25.5,0.2,26.1,18.6
				c0.6,15.5-3.3,31.1-5,46.7c-1.2,11.1-7,24.2,8.1,30.2c10.7,4.3,32.2-6.9,39.2-18c6.8-10.7,13.7-21.5,21.8-31.2
				c11.8-14.3,22.3-16.1,37.4-7.3c13.1,7.6,15,19.5,10.9,33.1c-1.3,4.3-2.5,8.7-3.7,12.9c19.4,14.3,55.7,11,73.2-6.6
				c4.3-4.3,7.9-9.8,13-12.7c5.2-3,11.8-3.4,17.8-4.9c0.3,6.1,1.5,12.4,0.6,18.4c-0.9,5.8-4.1,11.3-6.2,16.9
				c-0.1,0.3,0.4,0.9,0.7,1.4c8.5-5.4,16.6-11.8,25.7-15.9c18.4-8.4,31.2,0.2,32,20.4c0.3,8.6-0.1,17.3,0.8,25.8
				c0.9,8.4,5.4,11.8,13.7,6.7c22.9-14.1,45.9-28,68.6-42.3c2.7-1.7,3.7-5.9,5.6-8.8c5.3-8.1,10-16.7,16.1-24
				c16.1-19.3,31.2-22.8,54-13.8c3.5-6.1,6-13.1,10.8-17.9c3.3-3.2,10.6-5.6,14.5-4.1c3.2,1.2,6.5,9.1,5.6,13.2
				c-3.1,15.4-8.6,31.1-10.9,49.7c-1.6,12.4-3.7,120.7-27.7,197.2c-3.5,9-23.6,75.8-46.7,111.7c-12.5,19.4-31.6,57-51.5,67.2
				c-17.6,9-36.7,2.9-30.7-2.7c14-13.1,30.4-29.1,38.1-39.3c64.4-85.4,87.5-201.2,92.1-243.2
				C1061.3,448.3,1061.5,408.6,1063.1,394.9z M1019.8,405.5c24.7-9.1,47-41.1,40.8-57.7C1039.7,355.1,1020.8,381.2,1019.8,405.5z
				 M713.2,359.8c-6.3,17.7-14,33.8-7.5,57.5c11.1-13.4,19.6-23.8,27.5-33.4C725.8,375,720.2,368.2,713.2,359.8z"/>
			<path class="st0" d="M438.8,305.5c-8.5-18.9-19.4-34.1-40.5-39.9c0.2-1.5,0.5-2.9,0.7-4.4c17-5,34-10,54.9-16.1
				C448.3,267.3,443.6,286.4,438.8,305.5z"/>
			<path class="st0" d="M1060.6,347.8c6.2,16.6-16.1,48.6-40.8,57.7"/>
			<path class="st0" d="M713.2,359.8c7,8.4,12.6,15.2,20,24.1c-8,9.7-16.5,20-27.5,33.4"/>
		</g>
		<g>
			<path d="M602.3,513.1l-33.5,50.3v50.3c0,0.7-0.7,1.5-1.6,1.5c-0.8,0-1.5-0.8-1.5-1.5v-50.3l-33.5-50.3c-0.4-0.6-0.3-1.6,0.4-2.1
				c0.6-0.4,1.5-0.3,2.1,0.3l32.7,48.8l32.5-48.8c0.4-0.6,1.5-0.7,2.1-0.3C602.6,511.5,602.7,512.5,602.3,513.1z"/>
			<path d="M666.2,615.2c-28,0-50.9-23.4-50.9-52.2c0-28.8,22.9-52.2,50.9-52.2c28.2,0,51,23.4,51,52.2
				C717.2,591.7,694.4,615.2,666.2,615.2z M666.2,513.8c-26.4,0-47.9,22-47.9,49.1c0,27.1,21.5,49.1,47.9,49.1
				c26.5,0,47.9-22,47.9-49.1C714.1,535.8,692.7,513.8,666.2,513.8z"/>
			<path d="M781,615.2c-28.2,0-51.1-23.4-51.1-52.2c0-28.8,22.9-52.2,51.1-52.2c14.7,0,28.6,6.5,38.3,17.8c0.6,0.8,0.4,1.7-0.2,2.2
				c-0.6,0.6-1.5,0.4-2.1-0.1c-9-10.7-22.3-16.8-36.1-16.8c-26.4,0-47.9,22-47.9,49.1c0,27.1,21.5,49.1,47.9,49.1
				c13.7,0,26.6-5.9,35.6-16.3v-27.3h-31.9c-0.9,0-1.5-0.6-1.5-1.5c0-0.9,0.6-1.6,1.5-1.6h33.5c0.8,0,1.5,0.8,1.5,1.6v29.4
				c0,0.3-0.1,0.8-0.4,1.1C809.6,608.6,795.7,615.2,781,615.2z"/>
			<path d="M833.9,615.2c-0.8,0-1.5-0.8-1.5-1.5V512.2c0-0.7,0.8-1.5,1.5-1.5c0.9,0,1.5,0.8,1.5,1.5v101.5
				C835.4,614.4,834.8,615.2,833.9,615.2z"/>
		</g>
	</g>
</g>
<g id="Layer_2" class="st26">
</g>
<g id="Layer_3" class="st26">
</g>
<g id="Layer_4">
</g>
</svg>
